<mxfile host="app.diagrams.net" modified="2023-07-18T09:15:02.360Z" agent="Mozilla/5.0 (Macintosh; Intel Mac OS X 10_15_7) AppleWebKit/537.36 (KHTML, like Gecko) Chrome/114.0.0.0 Safari/537.36" etag="CTb6onLB6gT8EFfx8lwY" version="21.3.7" type="github">
  <diagram name="第 1 页" id="1FPvL_inqG1fgnCIBrYx">
    <mxGraphModel dx="2074" dy="1059" grid="1" gridSize="10" guides="1" tooltips="1" connect="1" arrows="1" fold="1" page="1" pageScale="1" pageWidth="827" pageHeight="1169" math="0" shadow="0">
      <root>
        <mxCell id="0" />
        <mxCell id="1" parent="0" />
        <mxCell id="-aIPj-AFwl_o3mr0RVOG-2" value="" style="rounded=1;whiteSpace=wrap;html=1;fillColor=none;dashed=1;strokeWidth=2;" vertex="1" parent="1">
          <mxGeometry x="70" y="160" width="630" height="150" as="geometry" />
        </mxCell>
        <mxCell id="-aIPj-AFwl_o3mr0RVOG-1" value="建筑点击回调" style="rounded=0;whiteSpace=wrap;html=1;fillColor=#dae8fc;strokeColor=#6c8ebf;" vertex="1" parent="1">
          <mxGeometry x="100" y="220" width="120" height="60" as="geometry" />
        </mxCell>
        <mxCell id="-aIPj-AFwl_o3mr0RVOG-3" value="热力值渲染回调" style="rounded=0;whiteSpace=wrap;html=1;fillColor=#dae8fc;strokeColor=#6c8ebf;" vertex="1" parent="1">
          <mxGeometry x="250" y="220" width="120" height="60" as="geometry" />
        </mxCell>
        <mxCell id="-aIPj-AFwl_o3mr0RVOG-22" style="edgeStyle=orthogonalEdgeStyle;rounded=0;orthogonalLoop=1;jettySize=auto;html=1;exitX=0.5;exitY=0;exitDx=0;exitDy=0;entryX=0;entryY=0.5;entryDx=0;entryDy=0;" edge="1" parent="1" source="-aIPj-AFwl_o3mr0RVOG-4" target="-aIPj-AFwl_o3mr0RVOG-14">
          <mxGeometry relative="1" as="geometry">
            <Array as="points">
              <mxPoint x="460" y="130" />
              <mxPoint x="20" y="130" />
              <mxPoint x="20" y="610" />
            </Array>
          </mxGeometry>
        </mxCell>
        <mxCell id="-aIPj-AFwl_o3mr0RVOG-4" value="打卡模块" style="rounded=0;whiteSpace=wrap;html=1;fillColor=#dae8fc;strokeColor=#6c8ebf;" vertex="1" parent="1">
          <mxGeometry x="400" y="220" width="120" height="60" as="geometry" />
        </mxCell>
        <mxCell id="-aIPj-AFwl_o3mr0RVOG-24" style="edgeStyle=orthogonalEdgeStyle;rounded=0;orthogonalLoop=1;jettySize=auto;html=1;exitX=0.5;exitY=0;exitDx=0;exitDy=0;entryX=0;entryY=0.5;entryDx=0;entryDy=0;" edge="1" parent="1" source="-aIPj-AFwl_o3mr0RVOG-5" target="-aIPj-AFwl_o3mr0RVOG-14">
          <mxGeometry relative="1" as="geometry">
            <Array as="points">
              <mxPoint x="610" y="130" />
              <mxPoint x="20" y="130" />
              <mxPoint x="20" y="610" />
            </Array>
          </mxGeometry>
        </mxCell>
        <mxCell id="-aIPj-AFwl_o3mr0RVOG-5" value="详情页" style="rounded=0;whiteSpace=wrap;html=1;fillColor=#dae8fc;strokeColor=#6c8ebf;" vertex="1" parent="1">
          <mxGeometry x="550" y="220" width="120" height="60" as="geometry" />
        </mxCell>
        <mxCell id="-aIPj-AFwl_o3mr0RVOG-6" value="客户端" style="text;html=1;strokeColor=none;fillColor=none;align=left;verticalAlign=middle;whiteSpace=wrap;rounded=0;" vertex="1" parent="1">
          <mxGeometry x="100" y="180" width="60" height="30" as="geometry" />
        </mxCell>
        <mxCell id="-aIPj-AFwl_o3mr0RVOG-7" value="" style="rounded=1;whiteSpace=wrap;html=1;fillColor=none;dashed=1;strokeWidth=2;" vertex="1" parent="1">
          <mxGeometry x="70" y="340" width="630" height="150" as="geometry" />
        </mxCell>
        <mxCell id="-aIPj-AFwl_o3mr0RVOG-8" value="渲染引擎" style="rounded=0;whiteSpace=wrap;html=1;fillColor=#d5e8d4;strokeColor=#82b366;" vertex="1" parent="1">
          <mxGeometry x="100" y="400" width="270" height="60" as="geometry" />
        </mxCell>
        <mxCell id="-aIPj-AFwl_o3mr0RVOG-21" style="edgeStyle=orthogonalEdgeStyle;rounded=0;orthogonalLoop=1;jettySize=auto;html=1;exitX=0;exitY=0.5;exitDx=0;exitDy=0;entryX=1;entryY=0.5;entryDx=0;entryDy=0;" edge="1" parent="1" source="-aIPj-AFwl_o3mr0RVOG-9" target="-aIPj-AFwl_o3mr0RVOG-8">
          <mxGeometry relative="1" as="geometry" />
        </mxCell>
        <mxCell id="-aIPj-AFwl_o3mr0RVOG-9" value="nerd数据引擎" style="rounded=0;whiteSpace=wrap;html=1;fillColor=#d5e8d4;strokeColor=#82b366;" vertex="1" parent="1">
          <mxGeometry x="400" y="400" width="280" height="60" as="geometry" />
        </mxCell>
        <mxCell id="-aIPj-AFwl_o3mr0RVOG-12" value="引擎" style="text;html=1;strokeColor=none;fillColor=none;align=left;verticalAlign=middle;whiteSpace=wrap;rounded=0;" vertex="1" parent="1">
          <mxGeometry x="100" y="360" width="60" height="30" as="geometry" />
        </mxCell>
        <mxCell id="-aIPj-AFwl_o3mr0RVOG-13" value="" style="rounded=1;whiteSpace=wrap;html=1;fillColor=none;dashed=1;strokeWidth=2;" vertex="1" parent="1">
          <mxGeometry x="70" y="520" width="630" height="270" as="geometry" />
        </mxCell>
        <mxCell id="-aIPj-AFwl_o3mr0RVOG-18" style="edgeStyle=orthogonalEdgeStyle;rounded=0;orthogonalLoop=1;jettySize=auto;html=1;exitX=0.25;exitY=1;exitDx=0;exitDy=0;" edge="1" parent="1" source="-aIPj-AFwl_o3mr0RVOG-14" target="-aIPj-AFwl_o3mr0RVOG-17">
          <mxGeometry relative="1" as="geometry" />
        </mxCell>
        <mxCell id="-aIPj-AFwl_o3mr0RVOG-14" value="手图后台" style="rounded=0;whiteSpace=wrap;html=1;fillColor=#ffe6cc;strokeColor=#d79b00;" vertex="1" parent="1">
          <mxGeometry x="100" y="580" width="270" height="60" as="geometry" />
        </mxCell>
        <mxCell id="-aIPj-AFwl_o3mr0RVOG-20" style="edgeStyle=orthogonalEdgeStyle;rounded=0;orthogonalLoop=1;jettySize=auto;html=1;exitX=0.5;exitY=0;exitDx=0;exitDy=0;entryX=0.5;entryY=1;entryDx=0;entryDy=0;" edge="1" parent="1" source="-aIPj-AFwl_o3mr0RVOG-15" target="-aIPj-AFwl_o3mr0RVOG-9">
          <mxGeometry relative="1" as="geometry" />
        </mxCell>
        <mxCell id="-aIPj-AFwl_o3mr0RVOG-15" value="百变后台" style="rounded=0;whiteSpace=wrap;html=1;fillColor=#ffe6cc;strokeColor=#d79b00;" vertex="1" parent="1">
          <mxGeometry x="400" y="580" width="280" height="60" as="geometry" />
        </mxCell>
        <mxCell id="-aIPj-AFwl_o3mr0RVOG-16" value="后台" style="text;html=1;strokeColor=none;fillColor=none;align=left;verticalAlign=middle;whiteSpace=wrap;rounded=0;" vertex="1" parent="1">
          <mxGeometry x="100" y="540" width="60" height="30" as="geometry" />
        </mxCell>
        <mxCell id="-aIPj-AFwl_o3mr0RVOG-19" style="edgeStyle=orthogonalEdgeStyle;rounded=0;orthogonalLoop=1;jettySize=auto;html=1;exitX=1;exitY=0.5;exitDx=0;exitDy=0;entryX=0.5;entryY=1;entryDx=0;entryDy=0;" edge="1" parent="1" source="-aIPj-AFwl_o3mr0RVOG-17" target="-aIPj-AFwl_o3mr0RVOG-15">
          <mxGeometry relative="1" as="geometry" />
        </mxCell>
        <mxCell id="-aIPj-AFwl_o3mr0RVOG-17" value="热力数据" style="shape=datastore;whiteSpace=wrap;html=1;fillColor=#fff2cc;strokeColor=#d6b656;" vertex="1" parent="1">
          <mxGeometry x="93" y="700" width="150" height="60" as="geometry" />
        </mxCell>
      </root>
    </mxGraphModel>
  </diagram>
</mxfile>
